<?xml version="1.0" encoding="utf-8"?>
<!-- Generator: Adobe Illustrator 24.2.3, SVG Export Plug-In . SVG Version: 6.00 Build 0)  -->
<svg version="1.1" id="Layer_1" xmlns="http://www.w3.org/2000/svg" xmlns:xlink="http://www.w3.org/1999/xlink" x="0px" y="0px"
	 viewBox="0 0 712.9 298.9" style="enable-background:new 0 0 712.9 298.9;" xml:space="preserve">
<g>
	<path d="M257.3,61.9c19.8-13.3,27.1-39.8,25.4-61.9c-15,25.7-51.5,29.5-55.2,62.4c0-9,3-17.7,8.5-24.8
		c-23.5,10.3-36.3,26.8-36.3,52.3c-1.8-11.3-1.7-22.3,4.1-32.5c-24.7,18.6-35.8,42.4-29,73.5c-4.5-14.7-5.1-27.7-4.6-43.5
		c-22.6,20.8-31.8,48.4-21.5,77.7c-5.2-7.2-6.4-21.5-10.4-31.6c-13.5,15.5-5.7,77.1-14.4,36.4c-8.3,15.9,3.5,43.9-6,49.2
		c-2.8,1.9-3.9,4.2-3.1,7.5c0.2,4-0.1,8.1-0.7,12.1c-0.2,1.6-0.5,3.3-0.7,4.8l0,0.1c0,0.1,0,0.1,0,0.1c-0.1,0.9-0.2,1.7-0.4,2.5
		c0,0.2,0,0.3-0.1,0.5l-0.1,1c0,0,0,0,0,0c-0.1,1.5-0.2,3.3-0.2,5.5c0,2.2,0,4.6,0.3,7.5c0,0,4.2-12.3,6.5-18
		c1.7,10.6-4.9,23.1-8.2,34.9c-0.3,1.3-0.7,2.6-0.9,3.8c-0.2,1.1-0.4,2.3-0.6,3.4c0.4-1.1,0.9-2.2,1.5-3.3c0.7-1.3,1.4-2.5,2.3-3.8
		c4.4-6.5,10.9-12.4,15.6-18.7c6.4-10.1,5.4-17.1,5.2-18.4l0-0.2c0-0.1-0.1-0.2-0.1-0.4c-1.5-7.8,9.9-14.4,2.1-20.8
		c10.3-15.1,34.4-11.2,43.8-27.9l-29.2,1.9c29.8-2.4,49.3-18.7,65.3-43.3c-10.6,1.6-23.4,5.2-35.4,3.4c28.2-2.5,50.9-14.2,65.3-39.3
		c-13,7.3-27.4,10.4-42.2,11.2c25.4-8,44.4-9.2,54.6-37.7c-9.7,3.9-21.8,11-31.3,9.5c25.4-6.9,43.5-21,47.9-48.8
		c-3.4,3.9-7.4,7.2-11.7,10C261.5,59.8,259.4,60.8,257.3,61.9z M218.2,95.7c-40,36.6-74.1,96.3-99,133
		c30.8-78.2,99.6-129.6,148-195.6C258.5,52.3,233.8,76.2,218.2,95.7z"/>
	<path d="M108.4,281.6c2.1-12.7-7.7-31.1,3.4-40.2C106.9,253.7,115.8,270.3,108.4,281.6z"/>
</g>
<path d="M622.8,155.6c11.4-68.7-80,47.2-71.6,19c11.7-33.2,46.2-46.2,65.2-72.8c2-2.2,3.6-4.8,4.7-7.5c1-3,0.3-4.9-0.7-6.1
	c-0.5-0.6-1.2-1.1-1.9-1.5c-1-0.5-2.1-0.8-3.3-0.8c-18.9,0-57.7,65.8-79.6,84.5l-0.2,0.1c-0.6,0.4-2.3,1.8-4.8,3.4
	c-1.9,1.2-4.1,2.6-6.5,3.9c-3.1,1.9-5.3,2.8-6.6,2.8c-5.6,0.3,3.2-13.9,10-24.7l0.5-0.8l0.4-0.5l0.1-0.1c3.7-5.5,8.2-10.4,13.4-14.5
	l0.1-0.1c15.4-11.7,30.8-23.8,41.3-40.2c0.9-1.2,1.6-2.4,2.2-3.7c2.6-5.6,0-8.3-0.8-8.9l-0.2-0.1c-18.8-13.1-74.1,86.7-95,92.5
	c-10,1.1,5.3-17.1,14.5-29.9l0.6-0.8c2.3-3.4,6.6-10.7,4.4-11.4c-0.1,0-0.3,0-0.4,0c-0.1,0-0.2,0-0.3,0c-0.1,0-0.2,0-0.3,0
	c-1.4,0.3-2.8,0.8-4,1.4c-2,1-3.9,2.3-5.5,3.8c-26.6,34-42.4,70.8,11.1,23.5c-24.9,45,22.5,12.3,36.6-2.9
	c-24.8,42.3,4.6,23.5,25.3,6c-6.6,52.5,50.5-8.1,64.4-21.2L622.8,155.6z M607.8,94.5c1.4-1.1,2.9-2,4.4-2.8l0.1-0.1
	c20.7-8.7-28.2,42.7-37.1,45.2C585,121.9,594.6,106.8,607.8,94.5z M549.9,119.1c5.1-7.5,11.4-14.2,18.6-19.8
	c3.5-2.8,7.1-5.4,10.9-7.7c0.5-0.2,1-0.3,1.3-0.3c7.1,0-30.7,44.9-42,48.4C541.9,130.1,549.4,119.8,549.9,119.1z M611,160.4
	c-2.8,12.3-35.7,41.4-28.9,12.5C585.5,153.1,630.9,113.8,611,160.4z"/>
<path d="M361.6,145.9c1.1-1.1,2.4-2.3,3.7-3.4C364,143.4,362.7,144.6,361.6,145.9z"/>
<path d="M399.8,220.9c4.9-8.2,8.7-14.9,9.8-16.7C405.8,210.1,402.6,215.8,399.8,220.9z"/>
<path d="M482.8,141.4c0-0.1-0.1-0.1-0.1-0.2c-2.9-5-7.8-4.1-10.7-3h-0.1c-0.8,0.3-1.6,0.7-2.3,1.1l-0.1,0.1
	c-4.7,2.6-8.9,6.1-13.5,9.6c28.5-55.4-45.8,52.9-44.3,26.3c35.9-46.4,14.1-47.3-21.1-10.3c4.1-8.9,12.2-18.3,17.6-27.3
	c-19.5-0.8-32.5,42.9-58.4,45.1c-11.7,2.2-5.1-16.1,0.8-18.9c9-4.6,19.7-7.8,26.9-15l0.5-0.5c5.7-6.2,1.7-11.1,1.3-11.4
	c-1.3-1.2-3-1.7-5-1.7c-16.6,0-52.7,38.6-40.5,52.7c23.6,11.9,61.1-48.4,32,1.3c22.6-5.8,31.7-36.7,54.8-45.2
	c-21.5,36.1-38.7,65.9,15.2,21.7c-9.5,12.4-18.5,25.7-25.9,37.7l-0.1,0.2l-0.2,0.3c-1.1,1.9-4.8,8.5-9.8,16.7l-0.1,0.1
	c-8.4,13.8-20,32.1-27.4,39.5c3-2.8,9.6-9,17.5-17.4c10-10.5,19.2-21.6,27.6-33.4c1.3-1.9,2.7-3.9,4.1-6l0.2-0.3
	c2.9-4.4,6-9.1,9.4-14.3C449,199.3,490.5,157.1,482.8,141.4z M361.5,145.9L361.5,145.9c0.2-0.2,0.4-0.4,0.5-0.5l0,0
	c0.9-0.9,1.8-1.8,2.8-2.6c0,0,0,0,0,0c0.1-0.1,0.3-0.2,0.4-0.3c2.3-1.6,5.1-3,7.4-1.4c0.4,0.4,0.6,0.9,0.6,1.5
	c0,5.6-16.7,18.8-23,19.5C353.1,156,356.8,150.6,361.5,145.9z M471.1,152.7L471.1,152.7c-7.8,14.5-19,36.7-38.3,34.6
	C435.5,179.1,476.2,121.2,471.1,152.7z"/>
<path d="M337,154.9c-0.4,1.1-0.8,2.2-1.2,3.2C336.2,157,336.6,155.9,337,154.9z"/>
<path d="M335.8,158.1c0.5-1.1,0.9-2.2,1.2-3.2C336.6,155.9,336.2,157,335.8,158.1z"/>
<path d="M642,201.5c8.3-11.2,75.1-78.1,40.6-61.2c-21.6,22.5-39,50.7-63.3,69.8c-20.2,8.9-43.1,13.4-61.5,25.8
	c-1.3,0.8-2.5,1.7-3.7,2.7c-1.5,1.3-3.2,3-4.5,5.1c-1.4,2.1-2.4,4.6-2.6,7.5c0,0.2,0,0.3,0,0.5c0,31.9,156.8-80.2,155.1-93.2
	C686.9,179.9,665.7,192.5,642,201.5z M603.9,227.3c-83.4,62.4-67.2,2.7,13.2-12.2C612.7,219.2,608.4,223.4,603.9,227.3z"/>
<path d="M526,118.1c0,4.2-5,8.9-9.3,8.6C505.3,124.6,524.2,106.7,526,118.1z"/>
<path d="M633.9,181.3c0,4.2-5,8.9-9.3,8.6C613.2,187.7,632.2,170,633.9,181.3z"/>
<path d="M712.9,113.8c0,4.2-5,8.9-9.3,8.7C692.2,120.3,711.1,102.5,712.9,113.8z"/>
<path d="M471.9,138.3c-0.8,0.3-1.6,0.7-2.3,1.1C470.3,139,471.1,138.6,471.9,138.3z"/>
<path d="M482.8,141.4L482.8,141.4c0-0.1-0.1-0.1-0.1-0.2C482.8,141.3,482.8,141.4,482.8,141.4z"/>
<path d="M509.2,137.4c-0.4,0-0.7,0-1.1,0.1C508.4,137.4,508.8,137.4,509.2,137.4z"/>
<path d="M335.8,158.1l-0.1,0.3l0,0C335.7,158.3,335.8,158.2,335.8,158.1z"/>
<path d="M620.5,88.2c-0.5-0.6-1.2-1.1-1.9-1.4C619.3,87.1,620,87.6,620.5,88.2z"/>
<path d="M421.5,203.6c-1.3,2-2.7,4-4.1,6C418.8,207.7,420.1,205.7,421.5,203.6z"/>
<path d="M546.8,251.2L546.8,251.2L546.8,251.2z"/>
<path d="M557.7,235.9L557.7,235.9c-1.3,0.8-2.5,1.7-3.7,2.7C555.2,237.6,556.4,236.7,557.7,235.9z"/>
<path d="M338,138.3c-0.4-0.5-0.9-0.9-1.5-1.1c-0.9-0.3-1.9-0.5-2.9-0.5h-0.3c-7.1,0.1-13.6,8.3-19.9,11.5c3.6-6.9,13.5-29-0.4-15.1
	c-29.3,66.1-75.1,111.9-132.3,138.3c-0.4,0.2-0.7,0.4-1.1,0.5c-0.1,0-0.2,0.1-0.3,0.2c0,0-0.1,0-0.1,0c-18.8,8.5-38.8,15-59.9,19.5
	c-0.1,0-0.1,0-0.2,0c-16.9,2.9-35.3,3.7-52.6-0.5c-0.9-0.2-1.7-0.4-2.6-0.7c-0.3-0.1-0.6-0.2-0.9-0.3c-0.6-0.2-1.2-0.3-1.8-0.5
	C30.5,280,4.8,253,0,191.5c0,0-1.3,81.1,60.1,102.4c0.1,0,0.1,0,0.2,0.1c0.6,0.2,1.2,0.4,1.8,0.6c0.3,0.1,0.7,0.2,1,0.3
	c4,1.2,8.3,2.2,12.9,2.9c1.1,0.2,2.3,0.3,3.4,0.4c25.5,3,59-2.7,103.4-22.8c43-18,80.9-46.4,109.3-84.8
	c16.9-0.7,36.2-15.4,43.5-32.2c0.1-0.1,0.1-0.2,0.1-0.3c0.4-1.1,0.8-2.2,1.2-3.2v-0.1C340.5,144.9,339.7,140.4,338,138.3z
	 M325.6,154.6c-1.2,3.4-2.9,6.7-5.1,9.6c-6.8,12-15.6,23.8-29.2,23.8c-0.4,0-0.7,0-1.1,0c4.1-5.2,15.2-26.7,24.5-37l0.1-0.1
	c0.2-0.3,0.5-0.5,0.7-0.8l0.3-0.3c1.3-1.1,3.6-2.8,6.1-2.5l0.7,0.1l0.3,0.1C325,148.3,326.9,150.1,325.6,154.6z"/>
</svg>
